<svg width="35" height="35" xmlns="http://www.w3.org/2000/svg">

 <g>
  <title>background</title>
  <rect fill="none" id="canvas_background" height="37" width="37" y="-1" x="-1"/>
 </g>
 <g>
  <title>Layer 1</title>
  <path stroke="null" id="svg_2" fill="#ffff00" d="m12.207799,14.759328c0.026384,0.122796 0.089704,0.235673 0.184691,0.324353l4.728393,4.445345c0.131936,0.124041 0.304765,0.186049 0.477595,0.186049s0.345659,-0.062008 0.477595,-0.186049l4.728393,-4.445345c0.094987,-0.088681 0.158307,-0.201557 0.184691,-0.324353l1.344377,-6.321354l1.35097,-5.080398c0.068602,-0.260466 -0.043528,-0.533963 -0.282326,-0.682797c-0.236163,-0.147602 -0.547521,-0.140159 -0.778388,0.021084l-5.224456,3.683165l-3.601712,0l-5.224456,-3.683165c-0.230867,-0.162488 -0.540915,-0.169308 -0.778388,-0.021084c-0.238784,0.148834 -0.350928,0.422331 -0.282326,0.682797l1.347011,5.066134l1.348335,6.335618zm4.192748,-4.972488c0.127977,-0.14698 0.320599,-0.232561 0.522447,-0.232561l1.35097,0c0.201848,0 0.39447,0.085581 0.522447,0.232561s0.179422,0.340471 0.139839,0.527143l-0.675485,3.175252c-0.06332,0.296436 -0.340377,0.51039 -0.662286,0.51039s-0.598966,-0.213954 -0.662286,-0.51039l-0.675485,-3.175252c-0.039583,-0.186671 0.011862,-0.380163 0.139839,-0.527143z"/>
  <path stroke="null" id="svg_3" fill="#ffff00" d="m6.263243,31.749802c0.052253,0.266463 0.247165,0.481486 0.504208,0.557915l7.337108,2.185136l-10.153963,-14.443495l2.312647,11.700444z"/>
  <path stroke="null" id="svg_4" fill="#ffff00" d="m27.612113,32.446386c0.251881,-0.071541 0.442854,-0.272814 0.494055,-0.522223l2.265996,-10.948697l-9.946135,13.516645l7.186084,-2.045725z"/>
  <path stroke="null" id="svg_5" fill="#ffff00" d="m34.600799,0.16386c-0.254106,-0.159707 -0.57921,-0.146986 -0.823373,0.033215l-5.721088,4.271065l-1.358667,0.450929l-0.545048,2.172192l-0.398123,1.985189l2.357195,-1.005758c0.366273,-0.158998 0.794997,0.010609 0.955412,0.380186c0.157581,0.366769 -0.012778,0.792168 -0.381871,0.949762l-3.276061,1.397768l-0.279749,1.395307l1.58537,-0.5261c0.383296,-0.125797 0.792147,0.077733 0.919913,0.45721c0.126341,0.379477 -0.079503,0.789332 -0.459964,0.915129l-2.372982,0.787479l-0.080128,0.39971c-0.085172,0.422577 -0.29244,0.805599 -0.596233,1.108746l-5.087932,5.065361c-0.411701,0.409855 -0.959671,0.635992 -1.541716,0.635992s-1.130015,-0.226137 -1.541716,-0.635992l-5.087932,-5.065361c-0.303793,-0.303147 -0.511061,-0.686169 -0.596233,-1.107342l-0.080564,-0.401287l-2.372546,-0.787305c-0.380461,-0.125797 -0.586304,-0.535652 -0.459964,-0.915129c0.127765,-0.379477 0.542301,-0.582298 0.919913,-0.45721l1.584484,0.52584l-0.2802,-1.395568l-3.274724,-1.397247c-0.369093,-0.157594 -0.539452,-0.582993 -0.381871,-0.949762c0.160415,-0.369577 0.589139,-0.539879 0.955412,-0.380186l2.355422,1.004962l-0.411963,-2.051518l-0.528985,-2.104879l-1.359117,-0.451117l-5.721088,-4.271065c-0.242752,-0.181619 -0.569267,-0.194341 -0.823373,-0.033215c-0.25553,0.159707 -0.38472,0.459323 -0.32509,0.754003l2.801982,13.9519c0.02573,0.026413 0.057755,0.043722 0.079851,0.074636l13.067902,18.29407l0.000625,0.000174l0.887786,1.242851c0.136284,0.191504 0.35633,0.304565 0.591988,0.304565s0.455704,-0.113061 0.591988,-0.304565l0.887699,-1.242851l0.002399,-0.000709l13.066216,-18.293535c0.021834,-0.030205 0.053423,-0.047167 0.078703,-0.073044l2.803131,-13.953492c0.059631,-0.293971 -0.069559,-0.594296 -0.32509,-0.754003zm-18.639652,23.37567c-0.124931,0.243809 -0.376202,0.392198 -0.645935,0.392198c-0.039744,0 -0.079503,-0.003531 -0.119247,-0.009885l-4.361084,-0.723625c-0.251271,-0.041696 -0.461374,-0.210594 -0.555079,-0.445198l-1.453695,-3.618111c-0.112153,-0.278428 -0.039744,-0.597842 0.181712,-0.801358c0.22288,-0.202807 0.545136,-0.249453 0.817703,-0.11448l2.90739,1.44725c0.069559,0.034619 0.133449,0.080556 0.18882,0.135682l2.90739,2.894486c0.22288,0.222592 0.276827,0.563209 0.132025,0.84304zm10.204254,-4.40462l-1.453695,3.618111c-0.093705,0.234604 -0.303808,0.403501 -0.555079,0.445198l-4.361084,0.723625c-0.039744,0.006354 -0.079503,0.009885 -0.119247,0.009885c-0.269733,0 -0.51958,-0.14839 -0.645935,-0.392198c-0.144803,-0.279831 -0.090856,-0.620449 0.132025,-0.84304l2.90739,-2.894486c0.055371,-0.055127 0.119261,-0.101063 0.18882,-0.135682l2.90739,-1.44725c0.271143,-0.134973 0.593398,-0.088327 0.817703,0.11448c0.221456,0.203516 0.293864,0.522931 0.181712,0.801358z"/>
 </g>
</svg>