<svg width="30" height="24" xmlns="http://www.w3.org/2000/svg">

 <g>
  <title>background</title>
  <rect fill="none" id="canvas_background" height="26" width="32" y="-1" x="-1"/>
 </g>
 <g>
  <title>Layer 1</title>
  <path id="svg_2" fill="#303C42" d="m8.00977,9.59849c0.01953,0.09668 0.0664,0.18555 0.13671,0.25537l3.5,3.49991c0.09766,0.09766 0.22559,0.14648 0.35352,0.14648s0.25586,-0.04882 0.35352,-0.14648l3.5,-3.49991c0.07031,-0.06982 0.11718,-0.15869 0.13671,-0.25537l0.99512,-4.97693l1,-3.9999c0.05078,-0.20507 -0.03222,-0.4204 -0.20898,-0.53758c-0.17481,-0.11621 -0.40528,-0.11035 -0.57617,0.0166l-3.86719,2.89983l-2.66602,0l-3.86719,-2.89983c-0.17089,-0.12793 -0.40039,-0.1333 -0.57617,-0.0166c-0.17675,0.11718 -0.25976,0.33251 -0.20898,0.53758l0.99707,3.98867l0.99805,4.98816zm3.10351,-3.91494c0.09473,-0.11572 0.23731,-0.1831 0.38672,-0.1831l1,0c0.14941,0 0.29199,0.06738 0.38672,0.1831s0.13281,0.26806 0.10351,0.41503l-0.5,2.49994c-0.04687,0.23339 -0.25195,0.40184 -0.49023,0.40184s-0.44336,-0.16845 -0.49023,-0.40184l-0.5,-2.49994c-0.0293,-0.14697 0.00878,-0.29931 0.10351,-0.41503z"/>
  <path id="svg_3" fill="#303C42" d="m4.00879,20.5992c0.03613,0.18213 0.1709,0.3291 0.34863,0.38134l5.07318,1.49356l-7.02087,-9.87226l1.59906,7.99736z"/>
  <path id="svg_4" fill="#303C42" d="m19.6416,20.97956c0.17774,-0.05224 0.3125,-0.19921 0.34863,-0.38133l1.599,-7.9948l-7.01849,9.86993l5.07086,-1.4938z"/>
  <path id="svg_5" fill="#303C42" d="m23.7666,0.07773c-0.1748,-0.11035 -0.39844,-0.10156 -0.5664,0.02295l-3.93555,2.9511l-0.93463,0.31157l-0.37494,1.50088l-0.27387,1.37167l1.62152,-0.69493c0.25196,-0.10986 0.54688,0.00733 0.65723,0.26269c0.1084,0.25342 -0.00879,0.54735 -0.26269,0.65624l-2.25361,0.96579l-0.19244,0.96409l1.09058,-0.36351c0.26367,-0.08692 0.54492,0.05371 0.63281,0.31591c0.08691,0.2622 -0.05469,0.54539 -0.31641,0.63231l-1.63238,0.54411l-0.05512,0.27618c-0.05859,0.29198 -0.20117,0.55663 -0.41015,0.76609l-3.5,3.49992c-0.28321,0.28319 -0.66016,0.43944 -1.06055,0.43944s-0.77734,-0.15625 -1.06055,-0.43944l-3.5,-3.49992c-0.20898,-0.20946 -0.35156,-0.47411 -0.41015,-0.76512l-0.05542,-0.27727l-1.63208,-0.54399c-0.26172,-0.08692 -0.40332,-0.37011 -0.31641,-0.63231c0.08789,-0.2622 0.37305,-0.40234 0.63281,-0.31591l1.08997,0.36333l-0.19275,-0.96427l-2.25269,-0.96543c-0.2539,-0.10889 -0.37109,-0.40282 -0.26269,-0.65624c0.11035,-0.25536 0.40527,-0.37303 0.65723,-0.26269l1.6203,0.69438l-0.28339,-1.4175l-0.36389,-1.45437l-0.93494,-0.3117l-3.93555,-2.9511c-0.16699,-0.12549 -0.3916,-0.13428 -0.5664,-0.02295c-0.17578,0.11035 -0.26465,0.31737 -0.22363,0.52098l1.92749,9.64009c0.0177,0.01825 0.03973,0.03021 0.05493,0.05157l8.98944,12.64032l0.00043,0.00012l0.61071,0.85875c0.09375,0.13232 0.24512,0.21044 0.40723,0.21044s0.31348,-0.07812 0.40723,-0.21044l0.61065,-0.85875l0.00165,-0.00049l8.98828,-12.63995c0.01502,-0.02087 0.03675,-0.03259 0.05414,-0.05047l1.92828,-9.64119c0.04102,-0.20312 -0.04785,-0.41063 -0.22363,-0.52098zm-12.82226,16.15146c-0.08594,0.16846 -0.25879,0.27099 -0.44434,0.27099c-0.02734,0 -0.05469,-0.00244 -0.08203,-0.00683l-3,-0.49999c-0.17285,-0.02881 -0.31738,-0.14551 -0.38184,-0.30761l-1,-2.49994c-0.07715,-0.19238 -0.02734,-0.41308 0.125,-0.5537c0.15332,-0.14013 0.375,-0.17236 0.5625,-0.0791l2,0.99998c0.04785,0.02392 0.0918,0.05566 0.12989,0.09375l2,1.99995c0.15332,0.1538 0.19043,0.38915 0.09082,0.5825zm7.01953,-3.04338l-1,2.49994c-0.06446,0.1621 -0.20899,0.2788 -0.38184,0.30761l-3,0.49999c-0.02734,0.00439 -0.05469,0.00683 -0.08203,0.00683c-0.18555,0 -0.35742,-0.10253 -0.44434,-0.27099c-0.09961,-0.19335 -0.0625,-0.4287 0.09082,-0.5825l2,-1.99995c0.03809,-0.03809 0.08204,-0.06983 0.12989,-0.09375l2,-0.99998c0.18652,-0.09326 0.4082,-0.06103 0.5625,0.0791c0.15234,0.14062 0.20215,0.36132 0.125,0.5537z"/>
 </g>
</svg>